# xmcd
# 
# Track frame offsets:
#     150
#     23490
#     61670
#     87057
#     115102
#     133257
#     155570
#     196365
#     214327
#     235815
#     258692
# 
# Disc length: 3600
# 
# Revision: 4
# Processed by: cddbd v1.5.1PL0 Copyright (c) Steve Scherf et al.
# Submitted via: BonkEnc v1.0beta3
# 
DISCID=930e0e0b
DTITLE=Ronnie Earl and The Broadcasters - Language Of The Soul
DYEAR=1900
DGENRE=
TTITLE0=Eddie's Gospel Groove
TTITLE1=Beautiful Child
TTITLE2=Indigo Burrell
TTITLE3=Blues For Martin Luther King
TTITLE4=Harvard Square Stomp
TTITLE5=Barcelona Morning
TTITLE6=I Am With You
TTITLE7=Green Light
TTITLE8=Through Floods And Storms
TTITLE9=Blue Guitar
TTITLE10=Bill's Blues
EXTD=
EXTT0=
EXTT1=
EXTT2=
EXTT3=
EXTT4=
EXTT5=
EXTT6=
EXTT7=
EXTT8=
EXTT9=
EXTT10=
PLAYORDER=
